<svg width="2010" height="2010" viewBox="0 0 2010 2010" fill="none" xmlns="http://www.w3.org/2000/svg">
<path d="M1005 1605.8C926.085 1605.86 847.934 1590.36 775.015 1560.18C702.097 1530.01 635.842 1485.76 580.041 1429.96C524.239 1374.16 479.986 1307.9 449.812 1234.98C419.638 1162.07 404.135 1083.91 404.19 1005C404.19 993 404.55 980.92 405.26 968.94C414.375 816.059 481.53 672.431 593.001 567.408C704.472 462.385 851.843 403.897 1004.99 403.897C1158.15 403.897 1305.52 462.385 1416.99 567.408C1528.46 672.431 1595.62 816.059 1604.73 968.94C1605.44 980.94 1605.8 993.07 1605.8 1005.01C1605.86 1083.92 1590.36 1162.08 1560.18 1234.99C1530.01 1307.91 1485.76 1374.17 1429.96 1429.97C1374.16 1485.77 1307.9 1530.02 1234.98 1560.19C1162.07 1590.36 1083.91 1605.86 1005 1605.8Z" fill="url(#paint0_linear_1_2)"/>
<path d="M1852.12 825.48C1852.12 857.22 1840.25 888.43 1817.78 915.73C1800.78 936.4 1778.08 954.89 1748.42 972.26C1711.17 994.08 1663.17 1013.7 1605.26 1030.82C1586.99 1036.22 1567.74 1041.37 1547.51 1046.27C1398.77 1082.27 1206.12 1102.14 1005.04 1102.14C803.96 1102.14 611.31 1082.3 462.57 1046.27C442.35 1041.38 423.1 1036.23 404.82 1030.82C346.91 1013.7 298.92 994.08 261.67 972.26C232.01 954.89 209.32 936.4 192.31 915.73C169.85 888.43 157.97 857.22 157.97 825.48C157.97 798.25 166.83 757.4 208.97 717.4C233.22 694.34 265.63 674 308 655.1C375.9 624.86 469.26 599.43 579.17 581.17C572.83 587.537 566.62 594.067 560.54 600.76C517.146 648.384 481.705 702.686 455.58 761.58C432.75 768.1 411.78 775 393 782.24C347.22 799.82 323.41 815.91 312.93 825.45C319.44 831.45 332.03 840.92 355.41 852.45C372.97 861.12 393.97 869.57 417.78 877.61C441.83 885.73 468.78 893.43 497.78 900.47C635.31 933.8 815.44 952.15 1005 952.15C1194.56 952.15 1374.68 933.8 1512.21 900.49C1541.29 893.49 1568.21 885.75 1592.21 877.63C1616.01 869.63 1637.02 861.14 1654.58 852.47C1677.96 840.93 1690.58 831.47 1697.07 825.47C1686.58 815.93 1662.77 799.84 1616.99 782.26C1598.17 775.03 1577.2 768.12 1554.37 761.6C1528.23 702.704 1492.78 648.403 1449.37 600.78C1443.29 594.113 1437.08 587.583 1430.74 581.19C1540.65 599.45 1634 624.87 1701.91 655.11C1744.27 673.98 1776.68 694.36 1801 717.42C1843.27 757.4 1852.12 798.25 1852.12 825.48Z" fill="url(#paint1_linear_1_2)"/>
<mask id="mask0_1_2" style="mask-type:alpha" maskUnits="userSpaceOnUse" x="404" y="1005" width="1202" height="601">
<mask id="mask1_1_2" style="mask-type:alpha" maskUnits="userSpaceOnUse" x="404" y="1005" width="1202" height="601">
<rect x="404" y="1005" width="1202" height="600.95" fill="#D9D9D9"/>
</mask>
<g mask="url(#mask1_1_2)">
<path d="M1005 1605.8C926.085 1605.86 847.934 1590.36 775.015 1560.18C702.097 1530.01 635.842 1485.76 580.041 1429.96C524.239 1374.16 479.986 1307.9 449.812 1234.98C419.638 1162.07 404.135 1083.91 404.19 1005C404.19 993 404.55 980.92 405.26 968.94C414.375 816.059 481.53 672.431 593.001 567.408C704.472 462.385 851.843 403.897 1004.99 403.897C1158.15 403.897 1305.52 462.385 1416.99 567.408C1528.46 672.431 1595.62 816.059 1604.73 968.94C1605.44 980.94 1605.8 993.07 1605.8 1005.01C1605.86 1083.92 1590.36 1162.08 1560.18 1234.99C1530.01 1307.91 1485.76 1374.17 1429.96 1429.97C1374.16 1485.77 1307.9 1530.02 1234.98 1560.19C1162.07 1590.36 1083.91 1605.86 1005 1605.8Z" fill="url(#paint2_linear_1_2)"/>
</g>
</mask>
<g mask="url(#mask0_1_2)">
<mask id="mask2_1_2" style="mask-type:alpha" maskUnits="userSpaceOnUse" x="404" y="403" width="1202" height="1203">
<path d="M1005 1605.8C926.085 1605.86 847.934 1590.36 775.015 1560.18C702.097 1530.01 635.842 1485.76 580.041 1429.96C524.239 1374.16 479.986 1307.9 449.812 1234.98C419.638 1162.07 404.135 1083.91 404.19 1005C404.19 993 404.55 980.92 405.26 968.94C414.375 816.059 481.53 672.431 593.001 567.408C704.472 462.385 851.843 403.897 1004.99 403.897C1158.15 403.897 1305.52 462.385 1416.99 567.408C1528.46 672.431 1595.62 816.059 1604.73 968.94C1605.44 980.94 1605.8 993.07 1605.8 1005.01C1605.86 1083.92 1590.36 1162.08 1560.18 1234.99C1530.01 1307.91 1485.76 1374.17 1429.96 1429.97C1374.16 1485.77 1307.9 1530.02 1234.98 1560.19C1162.07 1590.36 1083.91 1605.86 1005 1605.8Z" fill="url(#paint3_linear_1_2)"/>
</mask>
<g mask="url(#mask2_1_2)">
<g filter="url(#filter0_d_1_2)">
<path d="M1852.12 825.48C1852.12 857.22 1840.25 888.43 1817.78 915.73C1800.78 936.4 1778.08 954.89 1748.42 972.26C1711.17 994.08 1663.17 1013.7 1605.26 1030.82C1586.99 1036.22 1567.74 1041.37 1547.51 1046.27C1398.77 1082.27 1206.12 1102.14 1005.04 1102.14C803.96 1102.14 611.31 1082.3 462.57 1046.27C442.35 1041.38 423.1 1036.23 404.82 1030.82C346.91 1013.7 298.92 994.08 261.67 972.26C232.01 954.89 209.32 936.4 192.31 915.73C169.85 888.43 157.97 857.22 157.97 825.48C157.97 798.25 166.83 757.4 208.97 717.4C233.22 694.34 265.63 674 308 655.1C375.9 624.86 469.26 599.43 579.17 581.17C572.83 587.537 566.62 594.067 560.54 600.76C517.146 648.384 481.705 702.686 455.58 761.58C432.75 768.1 411.78 775 393 782.24C347.22 799.82 323.41 815.91 312.93 825.45C319.44 831.45 332.03 840.92 355.41 852.45C372.97 861.12 393.97 869.57 417.78 877.61C441.83 885.73 468.78 893.43 497.78 900.47C635.31 933.8 815.44 952.15 1005 952.15C1194.56 952.15 1374.68 933.8 1512.21 900.49C1541.29 893.49 1568.21 885.75 1592.21 877.63C1616.01 869.63 1637.02 861.14 1654.58 852.47C1677.96 840.93 1690.58 831.47 1697.07 825.47C1686.58 815.93 1662.77 799.84 1616.99 782.26C1598.17 775.03 1577.2 768.12 1554.37 761.6C1528.23 702.704 1492.78 648.403 1449.37 600.78C1443.29 594.113 1437.08 587.583 1430.74 581.19C1540.65 599.45 1634 624.87 1701.91 655.11C1744.27 673.98 1776.68 694.36 1801 717.42C1843.27 757.4 1852.12 798.25 1852.12 825.48Z" fill="url(#paint4_linear_1_2)"/>
</g>
</g>
</g>
<defs>
<filter id="filter0_d_1_2" x="132.97" y="581.17" width="1744.15" height="645.97" filterUnits="userSpaceOnUse" color-interpolation-filters="sRGB">
<feFlood flood-opacity="0" result="BackgroundImageFix"/>
<feColorMatrix in="SourceAlpha" type="matrix" values="0 0 0 0 0 0 0 0 0 0 0 0 0 0 0 0 0 0 127 0" result="hardAlpha"/>
<feOffset dy="100"/>
<feGaussianBlur stdDeviation="12.5"/>
<feComposite in2="hardAlpha" operator="out"/>
<feColorMatrix type="matrix" values="0 0 0 0 0 0 0 0 0 0 0 0 0 0 0 0 0 0 0.25 0"/>
<feBlend mode="normal" in2="BackgroundImageFix" result="effect1_dropShadow_1_2"/>
<feBlend mode="normal" in="SourceGraphic" in2="effect1_dropShadow_1_2" result="shape"/>
</filter>
<linearGradient id="paint0_linear_1_2" x1="2010" y1="2010" x2="0.000184235" y2="-0.000255623" gradientUnits="userSpaceOnUse">
<stop stop-color="#FF4500"/>
<stop offset="1" stop-color="#F4A460"/>
</linearGradient>
<linearGradient id="paint1_linear_1_2" x1="7.39795e-05" y1="1.16442e-05" x2="2010" y2="2010" gradientUnits="userSpaceOnUse">
<stop stop-color="#4682B4"/>
<stop offset="1" stop-color="#161670"/>
</linearGradient>
<linearGradient id="paint2_linear_1_2" x1="2010" y1="2010" x2="0.000184235" y2="-0.000255623" gradientUnits="userSpaceOnUse">
<stop stop-color="#FF4500"/>
<stop offset="1" stop-color="#F4A460"/>
</linearGradient>
<linearGradient id="paint3_linear_1_2" x1="2010" y1="2010" x2="0.000184235" y2="-0.000255623" gradientUnits="userSpaceOnUse">
<stop stop-color="#FF4500"/>
<stop offset="1" stop-color="#F4A460"/>
</linearGradient>
<linearGradient id="paint4_linear_1_2" x1="7.39795e-05" y1="1.16442e-05" x2="2010" y2="2010" gradientUnits="userSpaceOnUse">
<stop stop-color="#4682B4"/>
<stop offset="1" stop-color="#161670"/>
</linearGradient>
</defs>
</svg>
