<svg width="15" height="15" viewBox="0 0 15 15" fill="none" xmlns="http://www.w3.org/2000/svg">
<path d="M7.5 3C8.69347 3 9.83807 3.47411 10.682 4.31802C11.5259 5.16193 12 6.30653 12 7.5C12 8.69347 11.5259 9.83807 10.682 10.682C9.83807 11.5259 8.69347 12 7.5 12C6.30653 12 5.16193 11.5259 4.31802 10.682C3.47411 9.83807 3 8.69347 3 7.5C3 6.30653 3.47411 5.16193 4.31802 4.31802C5.16193 3.47411 6.30653 3 7.5 3V3ZM7.5 3.735C5.43225 3.735 3.75 5.41725 3.75 7.5C3.74903 8.29159 3.9976 9.06336 4.46036 9.7056C4.92312 10.3478 5.57654 10.8279 6.32775 11.0775C6.33895 11.0792 6.35021 11.0804 6.3615 11.0812C6.51375 11.0887 6.57075 10.9845 6.57075 10.8937L6.5655 10.2532C5.523 10.4805 5.3025 9.74775 5.3025 9.74775C5.13225 9.31275 4.88625 9.19725 4.88625 9.19725C4.54575 8.96325 4.91175 8.96775 4.91175 8.96775C5.1855 8.98725 5.36475 9.18375 5.44275 9.29025L5.48625 9.35625C5.82075 9.9315 6.36375 9.76575 6.5775 9.66975C6.612 9.426 6.708 9.26025 6.81525 9.16575C5.98275 9.0705 5.1075 8.74725 5.1075 7.30425C5.1075 6.89325 5.25375 6.55725 5.49375 6.29325L5.47125 6.2295C5.42325 6.07725 5.35725 5.736 5.5305 5.2965L5.5605 5.29125C5.6535 5.27925 5.9715 5.2815 6.56175 5.68275C6.8675 5.59912 7.18302 5.5565 7.5 5.556C7.81875 5.5575 8.13975 5.5995 8.439 5.6835C9.15525 5.196 9.4695 5.2965 9.4695 5.2965C9.6735 5.8155 9.5445 6.198 9.507 6.294C9.747 6.5565 9.89175 6.89325 9.89175 7.30425C9.89175 8.75175 9.015 9.06975 8.1795 9.16275C8.3145 9.279 8.4345 9.50925 8.4345 9.86025L8.43 10.8937C8.43 10.9912 8.49375 11.1053 8.67225 11.0775C9.42346 10.8279 10.0769 10.3478 10.5396 9.7056C11.0024 9.06336 11.251 8.29159 11.25 7.5C11.25 5.41725 9.56775 3.735 7.5 3.735Z" fill="url(#paint0_linear_2_4)"/>
<defs>
<linearGradient id="paint0_linear_2_4" x1="3" y1="3" x2="12" y2="12" gradientUnits="userSpaceOnUse">
<stop stop-color="#F4A460"/>
<stop offset="1" stop-color="#FF4500"/>
</linearGradient>
</defs>
</svg>
