<svg width="15" height="15" viewBox="0 0 15 15" fill="none" xmlns="http://www.w3.org/2000/svg">
<path d="M7.5 12C5.025 12 3 9.975 3 7.5C3 7.23 3.18 7.05 3.45 7.05C3.72 7.05 3.9 7.23 3.9 7.5C3.9 9.48 5.52 11.1 7.5 11.1C9.48 11.1 11.1 9.48 11.1 7.5C11.1 5.52 9.48 3.9 7.5 3.9C6.285 3.9 5.16 4.485 4.53 5.52C4.35 5.7 4.08 5.745 3.9 5.61C3.675 5.475 3.63 5.205 3.765 4.98C4.575 3.765 6.015 3 7.5 3C9.975 3 12 5.025 12 7.5C12 9.975 9.975 12 7.5 12Z" fill="white"/>
<path d="M5.5 6H3.5C3.2 6 3 5.8 3 5.5V3.5C3 3.2 3.2 3 3.5 3C3.8 3 4 3.2 4 3.5V5H5.5C5.8 5 6 5.2 6 5.5C6 5.8 5.8 6 5.5 6Z" fill="white"/>
</svg>
